# xmcd CD database file
#
# Track frame offsets:
#	150
#	13827
#	30249
#	46749
#	58369
#	77203
#	91610
#	112147
#	126327
#	143330
#	157769
#	169685
#	187125
#	197712
#	213800
#
# Disc length: 2882 seconds
#
# Revision: 0
# Processed by: cddbd v1.5.1PL0 Copyright (c) Steve Scherf et al.
# Submitted via: CDex 1.50beta10
#
DISCID=c10b400f
DTITLE=Anne&Agnetha - Kom hem
DYEAR=2004
DGENRE=Country
TTITLE0=Vandringsmannen
TTITLE1=På bestefars kne
TTITLE2=Odyssevs
TTITLE3=Där du är
TTITLE4=Chrystal chandeliers
TTITLE5=Om jag hade tid
TTITLE6=Sången hem till byn
TTITLE7=Kom hem
TTITLE8=Tvivlaren
TTITLE9=Luffarpojken
TTITLE10=Sommarlycka
TTITLE11=Sju av himlens ängarr
TTITLE12=Syner i lövsprickningen
TTITLE13=Intygas härmed
TTITLE14=Visa från Roknäs
EXTD=YEAR: 2004
EXTT0=
EXTT1=
EXTT2=
EXTT3=
EXTT4=
EXTT5=
EXTT6=
EXTT7=
EXTT8=
EXTT9=
EXTT10=
EXTT11=
EXTT12=
EXTT13=
EXTT14=
PLAYORDER=
